<svg xmlns="http://www.w3.org/2000/svg" xml:space="preserve" x="0" y="0" style="enable-background:new 0 0 49 38" version="1.1" viewBox="0 0 49 38"><path fill="currentColor" d="M44.2 0c-2.6 0-4.7 2.1-4.7 4.7 0 .4.1.8.2 1.2l-6.2 4.6c-.7-.4-1.5-.7-2.4-.7-1.3 0-2.4.5-3.3 1.3l-5.2-2.4v-.2c0-2.6-2.1-4.7-4.7-4.7s-4.7 2.1-4.7 4.7c0 .4.1.8.2 1.2l-6.2 4.6c-.7-.4-1.5-.7-2.4-.7-2.6 0-4.7 2.1-4.7 4.7S2.2 23 4.8 23s4.7-2.1 4.7-4.7c0-.4-.1-.8-.2-1.2l6.2-4.6c.7.4 1.5.7 2.4.7 1.3 0 2.4-.5 3.3-1.3l5.2 2.4v.2c0 2.6 2.1 4.7 4.7 4.7s4.7-2.1 4.7-4.7c0-.4-.1-.8-.2-1.2l6.2-4.6c.7.4 1.5.7 2.4.7 2.6 0 4.7-2.1 4.7-4.7S46.8 0 44.2 0zM4.7 19.7c-.7 0-1.2-.5-1.2-1.2s.5-1.2 1.2-1.2 1.2.5 1.2 1.2-.5 1.2-1.2 1.2zM19 9.1c-.2.5-.6.8-1.1.8-.7 0-1.2-.5-1.2-1.2s.5-1.2 1.2-1.2 1.2.5 1.2 1.2c0 .1 0 .2-.1.4zm12 6.7c-.7 0-1.2-.5-1.2-1.2 0-.2 0-.3.1-.4v-.1c.2-.4.6-.7 1.1-.7.7 0 1.2.5 1.2 1.2 0 .6-.5 1.2-1.2 1.2zm13.2-9.9c-.7 0-1.2-.5-1.2-1.2s.5-1.2 1.2-1.2 1.2.5 1.2 1.2-.5 1.2-1.2 1.2zM4.7 28.5c-1 0-1.7.8-1.7 1.7v6.1c0 1 .8 1.7 1.7 1.7s1.7-.8 1.7-1.7v-6.1c.1-1-.7-1.7-1.7-1.7z" fill="currentColor" /><path d="M17.9 18.4c-1 0-1.7.8-1.7 1.7v16.1c0 1 .8 1.7 1.7 1.7 1 0 1.7-.8 1.7-1.7v-16c0-1-.8-1.8-1.7-1.8zM31 24.5c-1 0-1.7.8-1.7 1.7v10c0 1 .8 1.7 1.7 1.7 1 0 1.7-.8 1.7-1.7v-10c.1-.9-.7-1.7-1.7-1.7zM44.2 14.6c-1 0-1.7.8-1.7 1.7v19.9c0 1 .8 1.7 1.7 1.7 1 0 1.7-.8 1.7-1.7V16.4c0-1-.8-1.8-1.7-1.8z" fill="currentColor"/></svg>