<svg xmlns="http://www.w3.org/2000/svg" xmlns:xlink="http://www.w3.org/1999/xlink" xml:space="preserve" id="Layer_1" x="0" y="0" style="enable-background:new 0 0 14 17" version="1.1" viewBox="0 0 14 17"><style>.st0{clip-path:url(#SVGID_00000070095659229666506820000001955541669883474582_)}</style><defs><path id="SVGID_1_" d="M0 0h14v17H0z"/></defs><clipPath id="SVGID_00000036961690735896378370000007327815157755641258_"><use xlink:href="#SVGID_1_" style="overflow:visible"/></clipPath><g style="clip-path:url(#SVGID_00000036961690735896378370000007327815157755641258_)"><path d="M6 0c-.4.1-.7.3-.8.6-.1.2-.1.6-.1.9.1.4.4.7.8.8h.2v.8h-.3c-.7.2-1.2.3-1.9.6-.4.3-.5.3-.5.2 0 0-.1-.2-.2-.3l-.1-.2c.2-.2.2-.4 0-.5-.1-.2-.2-.2-.3-.1-.2.1-.9.6-.9.7-.1.1 0 .3.1.4.1.1.2.1.4 0 .1 0 .2 0 .3.2l.2.3-.2.1c-.4.3-.9.8-1.2 1.2C.7 6.6.2 7.8.1 9c-.1.5-.1 1.5 0 2 .5 3.1 2.9 5.5 6 5.9.4.1 1.4.1 1.9.1 3.9-.5 6.6-4.2 5.9-8.1-.3-1.7-1.2-3.1-2.5-4.2l-.2-.1.3-.3.3-.3c.2.2.5 0 .5-.3 0-.1 0-.2-.1-.2-.1-.1-.8-.7-.9-.7-.1 0-.3.1-.4.2.1 0 .1.1.2.3l.1.1-.3.3-.3.3-.4-.2c-.7-.3-1.3-.6-2-.7h-.3v-.8h.2c.4-.1.7-.4.8-.8V1c0-.5-.2-.8-.6-.9C8.1 0 7.8 0 7.1 0H6zm2.2 4.5c1.8.4 3.2 1.5 4 3.1.4.9.6 2 .6 2.9-.1 1.5-.7 2.7-1.7 3.7-2.2 2.1-5.7 2.1-7.9 0-.7-.7-1.2-1.4-1.5-2.3-.4-1.2-.4-2.4 0-3.6C2.3 6.4 4 4.9 6 4.5c.5-.1.5-.1 1.3-.1.4 0 .6 0 .9.1z" style="fill:#fff"/><path d="M7 8.2v2.2h4.3v-.2c-.1-1.1-.5-2-1.2-2.8-.8-.7-1.7-1.2-3-1.3L7 6v2.2z" style="fill:#e00e46"/></g></svg>