<svg fill="currentColor" xmlns="http://www.w3.org/2000/svg" xml:space="preserve" style="enable-background:new 0 0 14 18" viewBox="0 0 14 18"><path d="M10.5 2.8 9.4 1.6c-.1-.1-.1-.3 0-.4L10.5.1c.1-.1.3-.1.4 0l2.5 2.6c.4.3.6.8.6 1.2 0 .5-.2.9-.6 1.3l-2.5 2.5c-.1.1-.3.1-.4 0L9.4 6.6c-.1-.1-.1-.3 0-.4L10.5 5H2.2v4.4c0 .2-.1.3-.3.3H.3c-.2 0-.3-.1-.3-.3V5c0-.6.2-1.1.6-1.5.4-.4.9-.7 1.5-.7h8.4zm-7 12.4 1.2 1.2c.1.1.1.3 0 .4l-1.1 1.1c-.1.1-.3.1-.4 0L.7 15.4c-.5-.4-.7-.9-.7-1.3 0-.5.2-.9.6-1.3l2.5-2.5c.1-.1.3-.1.4 0l1.1 1.1c.1.1.1.3 0 .4L3.5 13h8.4V8.6c0-.2.1-.3.3-.3h1.6c.2 0 .3.1.3.3V13c0 .6-.2 1.1-.6 1.5-.4.4-.9.6-1.5.6H3.5zm.5 1.4-1.5-1.5v-.2c0-.2.1-.3.3-.3h9.1c.4 0 .8-.2 1.1-.5.3-.3.5-.7.5-1.1V8.8h-1V13c0 .1-.1.3-.2.4-.1.1-.2.2-.4.2H2.8c-.1 0-.1 0-.2-.1s-.1-.3 0-.4L4 11.6l-.7-.7L1 13.2c-.3.3-.4.6-.4.9s.1.6.4.9l2.3 2.3.7-.7zm6-15.2 1.5 1.5v.2c0 .2-.1.3-.3.3H2.1c-.4 0-.8.2-1.1.5-.3.3-.4.6-.4 1.1v4.2h1V5c0-.1.1-.3.2-.4 0-.1.2-.1.3-.1h9.1c.1 0 .1 0 .2.1s.1.3 0 .4L10 6.4l.7.7L13 4.8c.3-.3.4-.6.4-.9 0-.3-.1-.6-.4-.9L10.7.7l-.7.7z"/></svg>